<svg width="22" height="17" viewBox="0 0 22 17" fill="none" xmlns="http://www.w3.org/2000/svg">
<path d="M1.62744 2.87494L20.3706 2.87494C20.7155 2.87494 20.9952 2.45491 20.995 1.93747C20.9948 1.41995 20.7147 1 20.3699 1L1.62671 1C1.28182 1 1.00212 1.42003 1.00232 1.93747C1.00252 2.45491 1.2826 2.87494 1.62744 2.87494Z" fill="black" stroke="white" stroke-width="0.2"/>
<path d="M20.3708 7.5625L1.62769 7.5625C1.2828 7.5625 1.00309 7.98253 1.00329 8.49997C1.00349 9.0174 1.28358 9.43743 1.62841 9.43743L20.3716 9.43743C20.7164 9.43743 20.9961 9.01741 20.9959 8.49997C20.9957 7.98253 20.7157 7.5625 20.3708 7.5625Z" fill="black" stroke="white" stroke-width="0.2"/>
<path d="M20.37 14.125L7.87475 14.125C7.52986 14.125 7.25015 14.545 7.25035 15.0625C7.25054 15.58 7.53061 15.9999 7.87544 15.9999L20.3707 15.9999C20.7156 15.9999 20.9953 15.5799 20.9951 15.0625C20.9949 14.545 20.7149 14.125 20.37 14.125Z" fill="black" stroke="white" stroke-width="0.2"/>
</svg>
